<?xml version="1.0" encoding="UTF-8" standalone="no"?>
<!-- Generator: Adobe Illustrator 14.0.0, SVG Export Plug-In . SVG Version: 6.00 Build 43363)  -->

<svg
   xmlns:dc="http://purl.org/dc/elements/1.1/"
   xmlns:cc="http://creativecommons.org/ns#"
   xmlns:rdf="http://www.w3.org/1999/02/22-rdf-syntax-ns#"
   xmlns:svg="http://www.w3.org/2000/svg"
   xmlns="http://www.w3.org/2000/svg"
   xmlns:sodipodi="http://sodipodi.sourceforge.net/DTD/sodipodi-0.dtd"
   xmlns:inkscape="http://www.inkscape.org/namespaces/inkscape"
   version="1.1"
   id="Capa_1"
   x="0px"
   y="0px"
   width="445.19568"
   height="460.73761"
   viewBox="0 0 445.19568 460.73761"
   enable-background="new 0 0 873 739"
   xml:space="preserve"
   inkscape:version="0.48.3.1 r9886"
   sodipodi:docname="Logo.svg"><metadata
   id="metadata29"><rdf:RDF><cc:Work
       rdf:about=""><dc:format>image/svg+xml</dc:format><dc:type
         rdf:resource="http://purl.org/dc/dcmitype/StillImage" /><dc:title></dc:title></cc:Work></rdf:RDF></metadata><defs
   id="defs27" /><sodipodi:namedview
   pagecolor="#ffffff"
   bordercolor="#666666"
   borderopacity="1"
   objecttolerance="10"
   gridtolerance="10"
   guidetolerance="10"
   inkscape:pageopacity="0"
   inkscape:pageshadow="2"
   inkscape:window-width="1366"
   inkscape:window-height="744"
   id="namedview25"
   showgrid="false"
   inkscape:snap-grids="true"
   showguides="true"
   inkscape:zoom="0.63870095"
   inkscape:cx="59.908745"
   inkscape:cy="272.80214"
   inkscape:window-x="0"
   inkscape:window-y="24"
   inkscape:window-maximized="1"
   inkscape:current-layer="Capa_1"
   inkscape:guide-bbox="true"
   fit-margin-top="10"
   fit-margin-left="10"
   fit-margin-right="10"
   fit-margin-bottom="10"><inkscape:grid
     type="xygrid"
     id="grid3044"
     empspacing="5"
     visible="true"
     enabled="true"
     snapvisiblegridlinesonly="true"
     originx="-210.34434px"
     originy="-149.315px" /><sodipodi:guide
     orientation="1,0"
     position="169.65566,225.685"
     id="guide3046" /><sodipodi:guide
     orientation="1,0"
     position="279.65566,180.685"
     id="guide3048" /></sodipodi:namedview>








<g
   id="g4007"
   transform="translate(-210.34434,-128.9474)"><path
     id="path3"
     d="m 322.006,334.886 c -15.364,6.454 -30.733,12.901 -46.099,19.351 1.906,3.775 3.943,7.473 6.104,11.087 15.425,-6.473 30.847,-12.95 46.269,-19.432 0.815,-0.378 1.72,-0.444 2.608,-0.431 5.511,0.022 4.824,0.016 10.336,0.019 v -12.622 c -6.358,0.014 -6.521,0.007 -12.882,0 -2.298,-0.115 -4.25,1.295 -6.336,2.028"
     clip-rule="evenodd"
     inkscape:connector-curvature="0"
     style="fill:#4d4d4d;fill-rule:evenodd" /><path
     id="path5"
     d="m 452.901,272.197 c 4.857,0.03 9.716,0.016 14.573,0.004 -2.732,-5.486 -5.45,-10.979 -8.205,-16.451 -0.555,-1.229 -1.769,-2.092 -3.119,-2.166 -1.476,-0.13 -2.728,0.772 -3.988,1.385 -4.24,2.139 -8.515,4.209 -12.754,6.356 4.484,3.642 8.991,7.252 13.493,10.872"
     clip-rule="evenodd"
     inkscape:connector-curvature="0"
     style="fill:#4d4d4d;fill-rule:evenodd" /><path
     id="path7"
     d="m 446.952,272.197 c -5.353,-4.341 -10.736,-8.646 -16.097,-12.978 -1.052,-0.889 -2.182,-1.86 -3.622,-1.96 -1.208,0.018 -2.388,0.613 -3.123,1.576 -3.579,4.46 -7.227,8.867 -10.762,13.369 11.201,0.009 22.403,0.02 33.604,-0.007"
     clip-rule="evenodd"
     inkscape:connector-curvature="0"
     style="fill:#4d4d4d;fill-rule:evenodd" /><path
     id="path9"
     d="m 473.265,276.109 c -2.592,-0.34 -5.211,-0.114 -7.813,-0.186 -19.82,0.018 -39.64,-0.015 -59.459,0.016 -0.819,-2.443 -1.925,-4.789 -3.264,-6.987 -2.14,-3.449 -5.348,-6.555 -9.445,-7.39 -2.377,-0.659 -4.867,-0.515 -7.307,-0.567 -1.48,0.103 -3.08,-0.229 -4.444,0.51 -1.54,0.806 -2.211,2.806 -1.664,4.422 0.455,1.594 2.147,2.611 3.758,2.574 1.944,-0.07 3.889,0.015 5.835,-0.012 2.009,-0.009 4.046,0.785 5.379,2.316 1.862,1.976 2.938,4.528 3.92,7.021 3.569,10.244 7.169,20.478 10.746,30.721 1.5,4.223 2.889,8.493 4.666,12.615 1.291,2.738 2.682,5.55 5.002,7.583 2.449,2.298 5.902,3.186 9.194,3.14 13.14,0 26.276,0.004 39.413,-0.003 0.863,0.014 1.76,0.117 2.584,-0.207 1.084,-0.367 1.982,-1.252 2.339,-2.342 0.803,-2.013 -0.698,-4.545 -2.847,-4.831 -2.09,-0.236 -4.195,-0.005 -6.292,-0.095 -11.491,0.012 -22.979,-0.003 -34.466,0.008 -1.734,0.067 -3.676,-0.046 -5.021,-1.286 -1.746,-1.685 -2.622,-4.002 -3.602,-6.165 11.417,0.005 22.835,0.005 34.252,-0.003 1.555,0.043 3.111,0.013 4.667,-0.077 3.003,-0.191 5.864,-1.515 8.146,-3.442 3.24,-2.768 5.376,-6.551 7.145,-10.366 2.269,-5.361 3.882,-10.984 5.047,-16.682 0.55,-2.536 0.182,-5.365 -1.423,-7.461 -1.203,-1.593 -3.123,-2.472 -5.046,-2.824 m -52.331,18.456 c -1.862,0.154 -3.756,-1.338 -3.915,-3.228 -0.286,-1.834 1.001,-3.738 2.83,-4.095 2.072,-0.546 4.29,1.015 4.534,3.121 0.338,2.047 -1.401,4.102 -3.449,4.202 m 7.451,11.189 c -2.036,0.172 -4.069,-1.641 -3.921,-3.727 -0.081,-1.683 1.218,-3.276 2.856,-3.599 2.069,-0.538 4.274,1.021 4.522,3.117 0.343,2.051 -1.402,4.116 -3.457,4.209 m 7.474,-11.196 c -2.208,0.236 -4.291,-1.922 -3.935,-4.125 0.189,-1.673 1.594,-3.07 3.264,-3.264 2.193,-0.349 4.359,1.71 4.13,3.916 -0.105,1.81 -1.655,3.352 -3.459,3.473 m 10.918,7.72 c -0.107,1.742 -1.548,3.252 -3.282,3.447 -2.197,0.356 -4.372,-1.717 -4.131,-3.929 0.114,-1.735 1.544,-3.236 3.271,-3.436 2.198,-0.361 4.374,1.704 4.142,3.918 m 3.765,-7.738 c -1.996,0.133 -3.774,-1.726 -3.733,-3.687 -0.037,-1.684 1.277,-3.236 2.889,-3.627 2.199,-0.582 4.682,1.328 4.521,3.637 0.113,1.977 -1.706,3.778 -3.677,3.677 m 7.446,11.188 c -1.988,0.127 -3.758,-1.728 -3.721,-3.681 -0.041,-1.685 1.272,-3.238 2.882,-3.63 2.2,-0.585 4.688,1.323 4.527,3.632 0.115,1.985 -1.709,3.789 -3.688,3.679 m 6.965,-11.212 c -1.908,-0.167 -3.371,-2.045 -3.217,-3.923 0.08,-1.595 1.316,-3.026 2.869,-3.362 2.03,-0.516 4.335,1.006 4.51,3.129 0.454,2.322 -1.847,4.609 -4.162,4.156"
     clip-rule="evenodd"
     inkscape:connector-curvature="0"
     style="fill:#4d4d4d;fill-rule:evenodd" /><path
     id="path11"
     d="m 424.548,335.801 c -3.93,0.667 -7.194,4.202 -7.5,8.185 -0.317,2.678 0.662,5.478 2.553,7.398 1.869,2.005 4.687,3.042 7.409,2.811 4.512,-0.224 8.443,-4.272 8.558,-8.781 0.166,-2.707 -0.945,-5.457 -2.949,-7.281 -2.107,-2.022 -5.214,-2.899 -8.071,-2.332"
     clip-rule="evenodd"
     inkscape:connector-curvature="0"
     style="fill:#4d4d4d;fill-rule:evenodd" /><path
     id="path13"
     d="m 467.229,336.383 c -1.683,-0.762 -3.584,-0.909 -5.389,-0.582 -3.928,0.668 -7.19,4.202 -7.497,8.182 -0.317,2.681 0.665,5.478 2.553,7.396 1.869,2.012 4.69,3.048 7.419,2.816 4.509,-0.226 8.439,-4.279 8.549,-8.79 0.257,-3.794 -2.115,-7.594 -5.635,-9.022"
     clip-rule="evenodd"
     inkscape:connector-curvature="0"
     style="fill:#4d4d4d;fill-rule:evenodd" /><path
     id="path15"
     d="m 469.897,239.165 c -1.5,0 -3.333,-0.668 -4.501,-1.567 -0.667,-0.533 -1.367,-0.801 -2.066,-0.801 -1.568,0 -2.835,1.267 -2.835,2.869 0,0.933 0.468,1.766 1.434,2.499 1.268,1.067 3.035,1.802 5.269,2.201 v 0.967 c 0,1.333 1.135,2.568 2.434,2.568 1.367,0 2.4,-1.134 2.4,-2.568 v -0.867 c 4.137,-0.667 6.504,-3.5 6.504,-6.968 0,-1.902 -0.601,-3.4 -1.77,-4.502 -1.166,-1.101 -3.2,-2 -6.102,-2.667 -1.6,-0.366 -2.066,-0.468 -2.866,-0.733 -0.802,-0.302 -0.968,-0.634 -0.968,-1.135 0,-0.9 0.934,-1.567 2.701,-1.567 1.3,0 2.469,0.268 3.5,0.8 0.835,0.4 1.502,0.6 2.002,0.6 1.5,0 2.635,-1.166 2.635,-2.634 0,-0.899 -0.301,-1.632 -0.902,-2.134 -1.066,-0.967 -2.633,-1.566 -4.734,-1.833 v -0.6 c 0,-1.434 -1.033,-2.569 -2.4,-2.569 -1.299,0 -2.434,1.234 -2.434,2.569 v 0.767 c -3.701,0.833 -6.136,3.367 -6.136,6.535 0,2.101 0.633,3.668 1.868,4.702 1.233,1.033 3.268,1.834 6.035,2.433 2.535,0.534 3.733,0.967 3.733,2 0,1.101 -0.932,1.635 -2.801,1.635"
     clip-rule="evenodd"
     inkscape:connector-curvature="0"
     style="fill:#4d4d4d;fill-rule:evenodd" /><path
     id="path17"
     d="m 437.814,235.479 c -2.135,0 -4.743,-0.947 -6.4,-2.229 -0.949,-0.758 -1.944,-1.138 -2.94,-1.138 -2.228,0 -4.03,1.802 -4.03,4.079 0,1.328 0.664,2.512 2.038,3.555 1.802,1.517 4.315,2.56 7.491,3.129 v 1.375 c 0,1.896 1.612,3.651 3.46,3.651 1.945,0 3.414,-1.612 3.414,-3.651 v -1.232 c 5.879,-0.949 9.245,-4.979 9.245,-9.909 0,-2.704 -0.853,-4.837 -2.514,-6.4 -1.659,-1.564 -4.551,-2.845 -8.675,-3.793 -2.276,-0.521 -2.938,-0.663 -4.078,-1.043 -1.137,-0.426 -1.374,-0.9 -1.374,-1.612 0,-1.28 1.328,-2.229 3.84,-2.229 1.848,0 3.508,0.38 4.978,1.138 1.185,0.569 2.133,0.853 2.845,0.853 2.135,0 3.746,-1.66 3.746,-3.746 0,-1.28 -0.428,-2.321 -1.282,-3.033 -1.517,-1.375 -3.743,-2.227 -6.731,-2.607 v -0.854 c 0,-2.039 -1.469,-3.65 -3.414,-3.65 -1.848,0 -3.46,1.754 -3.46,3.65 v 1.091 c -5.262,1.184 -8.722,4.789 -8.722,9.293 0,2.985 0.899,5.214 2.654,6.683 1.754,1.47 4.645,2.609 8.58,3.462 3.604,0.759 5.312,1.375 5.312,2.844 0,1.566 -1.328,2.323 -3.983,2.323"
     clip-rule="evenodd"
     inkscape:connector-curvature="0"
     style="fill:#4d4d4d;fill-rule:evenodd" /><path
     sodipodi:nodetypes="cccccccccccccccccccccccccccccccccccccccccccccccccccccccccccccccccccccccccccccccccccccccscccccscccscccsccsccccccscccccccsccsccccccccsssssccccccccccccc"
     style="fill:#4d4d4d;fill-rule:evenodd"
     inkscape:connector-curvature="0"
     id="path19"
     d="m 329.896,205.31 c 6.437,0.017 13.573,0.026 20.953,0.03 6.812,0.003 13.831,0.002 20.712,-0.001 8.802,-0.004 17.373,-0.012 24.972,-0.017 1.668,-0.022 2.717,1.574 3.335,2.922 1.4,3.409 1.576,7.478 -0.004,10.855 -0.661,1.519 -2.185,2.66 -3.9,2.478 -7.224,0.004 -15.734,-0.014 -24.404,-0.031 -6.996,-0.011 -14.094,-0.02 -20.71,-0.009 -3.931,0.005 -7.69,0.017 -11.152,0.04 -2.546,0.136 -5.356,-0.522 -7.638,0.936 -2.536,1.486 -3.657,4.9 -2.561,7.621 0.919,2.437 3.455,4.106 6.063,4.008 5.061,0.035 10.116,0.01 15.177,-0.006 -0.264,7.117 -1.22,14.264 -3.496,21.035 -2.711,8.355 -7.753,16.105 -14.977,21.228 -8.608,6.181 -19.365,8.515 -29.801,8.845 -3.506,0.057 -6.465,3.456 -5.975,6.941 0.239,3.223 3.347,5.82 6.558,5.573 9.306,-0.284 18.669,-1.968 27.199,-5.791 8.158,-3.563 15.243,-9.345 20.603,-16.433 -0.001,41.885 -0.003,83.771 0.011,125.658 -0.083,7.562 3.028,15.225 8.895,20.105 4.895,4.425 11.615,6.478 18.143,6.329 35.711,0.045 71.42,-0.011 107.13,0 4.394,0.04 8.824,0.143 13.179,-0.538 8.447,-1.468 15.707,-7.701 18.953,-15.57 2.455,-6.344 1.789,-13.284 1.826,-19.934 0.016,-18.137 0.021,-36.277 0.025,-54.416 3.826,0.015 7.798,0.251 11.35,-1.415 4.602,-1.977 7.755,-6.357 9.217,-11.04 2.323,-7.479 1.256,-16.03 -3.195,-22.526 5.84,-8.112 5.778,-19.83 0.396,-28.154 -0.313,-0.361 -0.346,-0.728 -0.087,-1.094 5.659,-8.32 5.359,-20.105 -0.305,-28.347 4.941,-6.909 5.599,-16.348 2.519,-24.151 -1.781,-4.566 -5.268,-8.671 -9.981,-10.308 -3.182,-1.153 -6.585,-0.826 -9.912,-0.868 0,-11.052 0,-22.104 0.006,-33.156 -0.224,-5.561 0.483,-11.186 -0.642,-16.681 -1.725,-9.121 -8.978,-16.945 -17.943,-19.35 -3.13,-0.925 -6.427,-1.104 -9.673,-1.078 -38.223,0.052 -76.446,-0.141 -114.669,0 -9.665,0.104 -19.048,6.074 -22.889,15.007 -3.388,7.331 -2.098,15.565 -2.354,23.365 10e-4,5.119 0,10.236 0,15.354 -11.88,0.004 -22.241,0.016 -25.611,0.033 -1.56,-0.033 -2.989,0.706 -4.161,1.677 -20.567,16.797 -41.127,33.595 -61.689,50.393 -0.979,5.867 -1.672,11.83 -2.062,17.876 23.155,-18.91 46.311,-37.821 69.456,-56.743 0.815,-0.862 2.05,-0.621 3.113,-0.652 m 197.66,115.815 c -0.547,1.491 -1.584,3.153 -3.31,3.376 -1.741,0.127 -3.49,0.076 -5.234,0.02 0.001,-5.371 0,-10.742 0,-16.113 1.901,-0.034 3.811,-0.141 5.705,0.08 1.361,0.619 2.133,2.046 2.654,3.382 1.059,2.948 1.172,6.264 0.185,9.255 m -8.544,-41.59 c 1.825,-0.006 3.656,-0.088 5.479,0.05 1.342,0.433 2.127,1.759 2.694,2.968 1.233,3.042 1.399,6.538 0.394,9.667 -0.538,1.492 -1.514,3.162 -3.224,3.419 -1.777,0.203 -3.562,0.139 -5.342,0.091 -0.001,-5.397 0,-10.798 -0.001,-16.195 m 8.457,-15.841 c -0.559,1.349 -1.482,2.902 -3.072,3.099 -1.79,0.15 -3.592,0.082 -5.385,0.054 -10e-4,-5.366 -10e-4,-10.735 -10e-4,-16.101 1.96,0.012 3.941,-0.173 5.871,0.162 1.632,0.913 2.396,2.788 2.872,4.508 0.68,2.703 0.69,5.645 -0.285,8.278 m -8.458,-41.842 c 1.942,0.01 3.907,-0.169 5.818,0.2 2.448,1.427 3.068,4.561 3.356,7.153 0.155,2.974 -0.215,6.692 -2.906,8.501 -2.006,0.626 -4.169,0.301 -6.271,0.314 10e-4,-5.391 10e-4,-10.78 0.003,-16.168 m -27.04957,159.81078 -0.009,0.072 c 0,0.853 -0.355,1.648 -1.051,2.368 l -9.423,9.77 9.21,9.686 c 0.769,0.78 1.158,1.639 1.158,2.545 l 10e-4,0.329 c -0.155,1.101 -0.795,1.969 -1.901,2.582 -0.893,0.492 -1.823,0.74 -2.762,0.74 -0.258,0 -0.461,0 -0.724,-0.044 -1.247,-0.127 -2.208,-0.575 -2.94,-1.375 l -7.941,-8.38 -7.999,8.335 c -0.751,0.811 -1.811,1.289 -3.167,1.423 -0.247,0.041 -0.44,0.041 -0.706,0.041 -1.009,0 -1.871,-0.253 -2.625,-0.765 -0.972,-0.738 -1.518,-1.592 -1.665,-2.605 l -0.016,-0.057 c -0.035,-0.092 -0.035,-0.246 -0.035,-0.36 0,-0.851 0.352,-1.646 1.05,-2.366 l 9.371,-9.68 -9.319,-9.82 c -0.742,-0.758 -1.102,-1.561 -1.102,-2.456 0,-0.127 0,-0.235 0.051,-0.417 0.152,-1.082 0.776,-1.97 1.856,-2.635 0.888,-0.533 1.747,-0.783 2.702,-0.783 0.205,0 0.374,0.031 0.588,0.07 l 0.124,0.019 c 1.252,0.177 2.263,0.671 3.003,1.468 l 7.994,8.473 8.151,-8.469 c 0.844,-0.841 1.908,-1.338 3.188,-1.474 0.186,-0.042 0.379,-0.042 0.535,-0.042 0.989,0 1.911,0.291 2.743,0.867 0.947,0.635 1.504,1.478 1.662,2.541 0.039,0.133 0.039,0.264 -0.002,0.399 M 419.424,385.634 396.592,408.465 c -0.92,0.92 -2.521,0.92 -3.438,0.004 L 380.37,395.68 c -0.461,-0.458 -0.713,-1.069 -0.713,-1.717 0,-0.648 0.252,-1.26 0.713,-1.718 l 3.651,-3.652 c 0.459,-0.46 1.068,-0.714 1.719,-0.714 0.648,0 1.259,0.254 1.717,0.713 l 6.394,6.395 c 0.565,0.564 1.479,0.564 2.044,0 l 16.44,-16.44 c 0.917,-0.919 2.517,-0.917 3.435,0 l 3.654,3.652 c 0.945,0.947 0.945,2.488 0,3.435 m -2.812,-229.242 41.313,0 c 2.853,0 5.164,2.313 5.164,5.165 0,2.852 -2.312,5.164 -5.164,5.164 l -41.313,0 c -2.852,0 -5.164,-2.312 -5.164,-5.164 0,-2.852 2.313,-5.165 5.164,-5.165 m -45.049,25.803 c 42.252,-0.013 84.502,0.013 126.754,-0.013 -0.039,64.184 -0.026,117.524 -0.007,181.716 -42.258,-0.032 -84.515,0 -126.772,-0.019 0.041,-46.859 0.025,-82.868 0.021,-129.724 7.19,-0.011 17.304,0.002 22.882,0.002 3.599,0.123 7.353,-0.383 10.446,-2.346 4.881,-2.999 7.571,-8.593 8.35,-14.117 0.921,-6.766 -0.51,-14.128 -4.952,-19.464 -2.743,-3.341 -6.941,-5.39 -11.263,-5.478 -3.006,-0.017 -13.413,-0.026 -25.46,-0.028 10e-4,-3.509 10e-4,-7.021 10e-4,-10.529"
     clip-rule="evenodd" /></g>
<path
   clip-rule="evenodd"
   d="m 420.40566,437.7186 c -3.698,-14.121 3.267,-31.97 7.692,-43.782 -3.763,-4.96 -14.345,-4.11 -18.341,0 -12.183,-7.248 -23.574,2.313 -28.399,8.876 -3.953,5.374 -4.659,15.438 -11.833,16.565 -2.497,-12.097 -12.738,-16.45 -21.301,-22.482 1.008,-4.269 1.391,-12.752 -2.366,-14.2 -6.519,0.985 -14.699,5.157 -14.791,12.426 -0.048,3.694 4.258,6.746 4.733,10.648 1.02,8.379 -5.594,18.685 -11.242,18.342 4.855,-14.18 2.98,-37.173 -11.242,-36.683 -2.992,0.104 -5.139,2.659 -7.689,3.551 -2.398,0.837 -5.297,0.435 -7.692,1.183 -14.248,4.443 -24.952,20.758 -20.708,37.275 -3.349,3.749 -4.236,9.964 -11.834,9.466 -3.652,-16.194 2.87,-32.15 8.283,-43.191 -19.854,-9.173 -29.66,13.064 -26.031,33.133 -5.211,4.58 -12.475,12.726 -21.891,10.059 -5.274,-1.495 -7.137,-10.87 -7.101,-16.566 0.067,-10.306 3.797,-23.749 11.833,-26.033 6.042,6.556 -3.519,15.022 -8.282,18.341 3.968,2.934 7.559,6.245 15.383,5.325 14.114,-8.273 7.233,-28.036 -6.509,-29.583 -19.322,-2.172 -33.938,18.486 -30.175,37.275 -4.003,10.4 -28.466,18.764 -30.767,1.183 8.999,-5.49 22.977,-11.27 27.217,-21.3 5.213,-12.333 -9.288,-18.026 -20.117,-17.158 -16.222,1.301 -29.749,18.729 -26.031,36.683 -3.531,4.163 -3.826,11.56 -11.243,11.834 -1.14,-16.339 8.983,-26.508 10.651,-42.008 -0.462,-0.131 -0.689,-0.496 -0.592,-1.184 -7.197,-5.951 -24.6,1.819 -30.175,-5.325 14.358,-21.12 -3.677,-42.607 -27.215996,-42.007 h -14.199 c -22.023,3.845 -46.438,8.642 -55.025,25.441 -1.948,3.813 -3.264,9.218 -1.775,14.199 4.378,14.645 37.757,24.649 33.134,-4.142 -4.887,1.089 -12.708,2.297 -16.567,-0.592 -8.941,-28.604 63.065996,-37.65 67.448996,-11.241 3.353,20.209 -15.349996,37.714 -33.133996,39.049 5.774,-15.526 4.763,-37.836 15.976,-47.924 -26.533,-12.555 -29.504,19.478 -33.133,42.009 -2.116,13.137 -6.125,25.579 -11.833,32.539 -3.017,3.681 -13.991,11.831 -20.117,4.733 -6.242,-7.232 2.73,-19.486 6.51,-23.074 3.88,-3.685 8.762,-5.333 13.607,-7.692 -4.251,-5.598 -9.131,-9.544 -17.75,-8.281 -16.8069998,2.459 -21.4609998,31.802 -7.69,42.599 3.556,2.789 9.422,3.655 13.607,4.733 h 1.775 c 21.323,-2.344 28.917,-18.415 37.865,-33.133 19.76,-0.948 34.167996,-10.403 43.783996,-19.524 0.079,3.271 1.683,5.021 2.366,7.69 -1.506,4.543 -1.503,9.854 -2.958,14.792 -1.302,4.415 -5.973,9.083 -2.959,11.833 7.341,-2.127 7.887,-16.173 11.833,-23.666 1.535,1.333 3.962,-0.475 4.733,0.592 -3.674,10.369 -7.542,33.559 4.733,36.683 10.782,2.744 16.205,-7.362 20.708,-14.2 6.498,20.247 40.529,16.379 49.699,1.184 3.873,7.818 10.612,13.452 20.117,13.608 11.427,0.188 20.391,-7.748 26.624,-11.242 2.64,16.918 25.867,9.874 29.582,-1.183 3.74,7.753 11.57,12.686 20.708,12.425 11.715,-0.335 17.667,-9.388 22.483,-16.567 11.915,-1.494 16.736,-10.083 21.3,-18.933 3.658,2.454 5.313,6.916 5.915,12.425 -10.135,0.438 -23.377,9.6 -15.382,18.342 8.603,9.407 28.347,0.205 33.133,-7.691 2.315,-3.822 1.371,-9.786 7.099,-10.059 -1.37,24.425 27.467,25.256 28.992,4.733 0.424,24.543 27.434,16.808 31.356,0 v -5.325 c -5.662,-1.268 -6.6,16.746 -14.79,14.197 m -240.212,-43.19 c 5.125,4.113 1.054,12.14 -1.182,16.566 -2.6,5.148 -6.183,10.096 -9.467,11.242 0.794,-12.026 3.18,-22.459 10.649,-27.808 m 117.74,37.274 c -7.869,-7.941 0.527,-29.205 5.325,-34.907 -1.696,11.944 1.79,26.847 11.24,31.358 -3.247,5.535 -12.413,7.74 -16.565,3.549 m 20.117,-8.874 c -6.799,-1.6 -8.264,-19.195 -0.592,-18.934 5.72,2.805 2.121,14.415 0.592,18.934 m 20.115,10.649 c 1.781,-2.754 6.084,-2.989 9.467,-4.141 3.953,3.997 -9.52,16.089 -9.467,4.141 m 57.983,1.184 c -7.158,-6.098 -1.331,-39.432 11.241,-36.683 -5.255,10.719 -2.154,29.796 -11.241,36.683"
   id="path21"
   inkscape:connector-curvature="0"
   style="fill:#4d4d4d;fill-rule:evenodd" />
<path
   clip-rule="evenodd"
   d="m 266.57566,369.0876 c -5.188,1.396 -8.457,4.633 -8.282,10.649 0.431,14.837 25.456,12.99 24.258,-1.774 -0.531,-6.525 -6.44,-11.438 -15.976,-8.875"
   id="path23"
   inkscape:connector-curvature="0"
   style="fill:#4d4d4d;fill-rule:evenodd" />
</svg>