<?xml version="1.0" encoding="utf-8"?>
<!-- Generator: Adobe Illustrator 14.0.0, SVG Export Plug-In . SVG Version: 6.00 Build 43363)  -->
<!DOCTYPE svg PUBLIC "-//W3C//DTD SVG 1.1//EN" "http://www.w3.org/Graphics/SVG/1.1/DTD/svg11.dtd">
<svg version="1.1" id="Capa_1" xmlns="http://www.w3.org/2000/svg" xmlns:xlink="http://www.w3.org/1999/xlink" x="0px" y="0px"
	 width="873px" height="739px" viewBox="0 0 873 739" enable-background="new 0 0 873 739" xml:space="preserve">
<path fill-rule="evenodd" clip-rule="evenodd" fill="#4D4D4D" d="M322.006,334.886c-15.364,6.454-30.733,12.901-46.099,19.351
	c1.906,3.775,3.943,7.473,6.104,11.087c15.425-6.473,30.847-12.95,46.269-19.432c0.815-0.378,1.72-0.444,2.608-0.431
	c5.511,0.022,4.824,0.016,10.336,0.019v-12.622c-6.358,0.014-6.521,0.007-12.882,0C326.044,332.743,324.092,334.153,322.006,334.886
	"/>
<path fill-rule="evenodd" clip-rule="evenodd" fill="#4D4D4D" d="M452.901,272.197c4.857,0.03,9.716,0.016,14.573,0.004
	c-2.732-5.486-5.45-10.979-8.205-16.451c-0.555-1.229-1.769-2.092-3.119-2.166c-1.476-0.13-2.728,0.772-3.988,1.385
	c-4.24,2.139-8.515,4.209-12.754,6.356C443.892,264.967,448.399,268.577,452.901,272.197"/>
<path fill-rule="evenodd" clip-rule="evenodd" fill="#4D4D4D" d="M446.952,272.197c-5.353-4.341-10.736-8.646-16.097-12.978
	c-1.052-0.889-2.182-1.86-3.622-1.96c-1.208,0.018-2.388,0.613-3.123,1.576c-3.579,4.46-7.227,8.867-10.762,13.369
	C424.549,272.213,435.751,272.224,446.952,272.197"/>
<path fill-rule="evenodd" clip-rule="evenodd" fill="#4D4D4D" d="M473.265,276.109c-2.592-0.34-5.211-0.114-7.813-0.186
	c-19.82,0.018-39.64-0.015-59.459,0.016c-0.819-2.443-1.925-4.789-3.264-6.987c-2.14-3.449-5.348-6.555-9.445-7.39
	c-2.377-0.659-4.867-0.515-7.307-0.567c-1.48,0.103-3.08-0.229-4.444,0.51c-1.54,0.806-2.211,2.806-1.664,4.422
	c0.455,1.594,2.147,2.611,3.758,2.574c1.944-0.07,3.889,0.015,5.835-0.012c2.009-0.009,4.046,0.785,5.379,2.316
	c1.862,1.976,2.938,4.528,3.92,7.021c3.569,10.244,7.169,20.478,10.746,30.721c1.5,4.223,2.889,8.493,4.666,12.615
	c1.291,2.738,2.682,5.55,5.002,7.583c2.449,2.298,5.902,3.186,9.194,3.14c13.14,0,26.276,0.004,39.413-0.003
	c0.863,0.014,1.76,0.117,2.584-0.207c1.084-0.367,1.982-1.252,2.339-2.342c0.803-2.013-0.698-4.545-2.847-4.831
	c-2.09-0.236-4.195-0.005-6.292-0.095c-11.491,0.012-22.979-0.003-34.466,0.008c-1.734,0.067-3.676-0.046-5.021-1.286
	c-1.746-1.685-2.622-4.002-3.602-6.165c11.417,0.005,22.835,0.005,34.252-0.003c1.555,0.043,3.111,0.013,4.667-0.077
	c3.003-0.191,5.864-1.515,8.146-3.442c3.24-2.768,5.376-6.551,7.145-10.366c2.269-5.361,3.882-10.984,5.047-16.682
	c0.55-2.536,0.182-5.365-1.423-7.461C477.108,277.34,475.188,276.461,473.265,276.109 M420.934,294.565
	c-1.862,0.154-3.756-1.338-3.915-3.228c-0.286-1.834,1.001-3.738,2.83-4.095c2.072-0.546,4.29,1.015,4.534,3.121
	C424.721,292.41,422.982,294.465,420.934,294.565 M428.385,305.754c-2.036,0.172-4.069-1.641-3.921-3.727
	c-0.081-1.683,1.218-3.276,2.856-3.599c2.069-0.538,4.274,1.021,4.522,3.117C432.185,303.596,430.44,305.661,428.385,305.754
	 M435.859,294.558c-2.208,0.236-4.291-1.922-3.935-4.125c0.189-1.673,1.594-3.07,3.264-3.264c2.193-0.349,4.359,1.71,4.13,3.916
	C439.213,292.895,437.663,294.437,435.859,294.558 M446.777,302.278c-0.107,1.742-1.548,3.252-3.282,3.447
	c-2.197,0.356-4.372-1.717-4.131-3.929c0.114-1.735,1.544-3.236,3.271-3.436C444.833,297.999,447.009,300.064,446.777,302.278
	 M450.542,294.54c-1.996,0.133-3.774-1.726-3.733-3.687c-0.037-1.684,1.277-3.236,2.889-3.627c2.199-0.582,4.682,1.328,4.521,3.637
	C454.332,292.84,452.513,294.641,450.542,294.54 M457.988,305.728c-1.988,0.127-3.758-1.728-3.721-3.681
	c-0.041-1.685,1.272-3.238,2.882-3.63c2.2-0.585,4.688,1.323,4.527,3.632C461.791,304.034,459.967,305.838,457.988,305.728
	 M464.953,294.516c-1.908-0.167-3.371-2.045-3.217-3.923c0.08-1.595,1.316-3.026,2.869-3.362c2.03-0.516,4.335,1.006,4.51,3.129
	C469.569,292.682,467.268,294.969,464.953,294.516"/>
<path fill-rule="evenodd" clip-rule="evenodd" fill="#4D4D4D" d="M424.548,335.801c-3.93,0.667-7.194,4.202-7.5,8.185
	c-0.317,2.678,0.662,5.478,2.553,7.398c1.869,2.005,4.687,3.042,7.409,2.811c4.512-0.224,8.443-4.272,8.558-8.781
	c0.166-2.707-0.945-5.457-2.949-7.281C430.512,336.111,427.405,335.234,424.548,335.801"/>
<path fill-rule="evenodd" clip-rule="evenodd" fill="#4D4D4D" d="M467.229,336.383c-1.683-0.762-3.584-0.909-5.389-0.582
	c-3.928,0.668-7.19,4.202-7.497,8.182c-0.317,2.681,0.665,5.478,2.553,7.396c1.869,2.012,4.69,3.048,7.419,2.816
	c4.509-0.226,8.439-4.279,8.549-8.79C473.121,341.611,470.749,337.811,467.229,336.383"/>
<path fill-rule="evenodd" clip-rule="evenodd" fill="#4D4D4D" d="M469.897,239.165c-1.5,0-3.333-0.668-4.501-1.567
	c-0.667-0.533-1.367-0.801-2.066-0.801c-1.568,0-2.835,1.267-2.835,2.869c0,0.933,0.468,1.766,1.434,2.499
	c1.268,1.067,3.035,1.802,5.269,2.201v0.967c0,1.333,1.135,2.568,2.434,2.568c1.367,0,2.4-1.134,2.4-2.568v-0.867
	c4.137-0.667,6.504-3.5,6.504-6.968c0-1.902-0.601-3.4-1.77-4.502c-1.166-1.101-3.2-2-6.102-2.667
	c-1.6-0.366-2.066-0.468-2.866-0.733c-0.802-0.302-0.968-0.634-0.968-1.135c0-0.9,0.934-1.567,2.701-1.567
	c1.3,0,2.469,0.268,3.5,0.8c0.835,0.4,1.502,0.6,2.002,0.6c1.5,0,2.635-1.166,2.635-2.634c0-0.899-0.301-1.632-0.902-2.134
	c-1.066-0.967-2.633-1.566-4.734-1.833v-0.6c0-1.434-1.033-2.569-2.4-2.569c-1.299,0-2.434,1.234-2.434,2.569v0.767
	c-3.701,0.833-6.136,3.367-6.136,6.535c0,2.101,0.633,3.668,1.868,4.702c1.233,1.033,3.268,1.834,6.035,2.433
	c2.535,0.534,3.733,0.967,3.733,2C472.698,238.631,471.766,239.165,469.897,239.165"/>
<path fill-rule="evenodd" clip-rule="evenodd" fill="#4D4D4D" d="M437.814,235.479c-2.135,0-4.743-0.947-6.4-2.229
	c-0.949-0.758-1.944-1.138-2.94-1.138c-2.228,0-4.03,1.802-4.03,4.079c0,1.328,0.664,2.512,2.038,3.555
	c1.802,1.517,4.315,2.56,7.491,3.129v1.375c0,1.896,1.612,3.651,3.46,3.651c1.945,0,3.414-1.612,3.414-3.651v-1.232
	c5.879-0.949,9.245-4.979,9.245-9.909c0-2.704-0.853-4.837-2.514-6.4c-1.659-1.564-4.551-2.845-8.675-3.793
	c-2.276-0.521-2.938-0.663-4.078-1.043c-1.137-0.426-1.374-0.9-1.374-1.612c0-1.28,1.328-2.229,3.84-2.229
	c1.848,0,3.508,0.38,4.978,1.138c1.185,0.569,2.133,0.853,2.845,0.853c2.135,0,3.746-1.66,3.746-3.746
	c0-1.28-0.428-2.321-1.282-3.033c-1.517-1.375-3.743-2.227-6.731-2.607v-0.854c0-2.039-1.469-3.65-3.414-3.65
	c-1.848,0-3.46,1.754-3.46,3.65v1.091c-5.262,1.184-8.722,4.789-8.722,9.293c0,2.985,0.899,5.214,2.654,6.683
	c1.754,1.47,4.645,2.609,8.58,3.462c3.604,0.759,5.312,1.375,5.312,2.844C441.797,234.722,440.469,235.479,437.814,235.479"/>
<path fill-rule="evenodd" clip-rule="evenodd" fill="#4D4D4D" d="M329.896,205.31c6.437,0.017,13.573,0.026,20.953,0.03
	c6.812,0.003,13.831,0.002,20.712-0.001c8.802-0.004,17.373-0.012,24.972-0.017c1.668-0.022,2.717,1.574,3.335,2.922
	c1.4,3.409,1.576,7.478-0.004,10.855c-0.661,1.519-2.185,2.66-3.9,2.478c-7.224,0.004-15.734-0.014-24.404-0.031
	c-6.996-0.011-14.094-0.02-20.71-0.009c-3.931,0.005-7.69,0.017-11.152,0.04c-2.546,0.136-5.356-0.522-7.638,0.936
	c-2.536,1.486-3.657,4.9-2.561,7.621c0.919,2.437,3.455,4.106,6.063,4.008c5.061,0.035,10.116,0.01,15.177-0.006
	c-0.264,7.117-1.22,14.264-3.496,21.035c-2.711,8.355-7.753,16.105-14.977,21.228c-8.608,6.181-19.365,8.515-29.801,8.845
	c-3.506,0.057-6.465,3.456-5.975,6.941c0.239,3.223,3.347,5.82,6.558,5.573c9.306-0.284,18.669-1.968,27.199-5.791
	c8.158-3.563,15.243-9.345,20.603-16.433c-0.001,41.885-0.003,83.771,0.011,125.658c-0.083,7.562,3.028,15.225,8.895,20.105
	c4.895,4.425,11.615,6.478,18.143,6.329c35.711,0.045,71.42-0.011,107.13,0c4.394,0.04,8.824,0.143,13.179-0.538
	c8.447-1.468,15.707-7.701,18.953-15.57c2.455-6.344,1.789-13.284,1.826-19.934c0.016-18.137,0.021-36.277,0.025-54.416
	c3.826,0.015,7.798,0.251,11.35-1.415c4.602-1.977,7.755-6.357,9.217-11.04c2.323-7.479,1.256-16.03-3.195-22.526
	c5.84-8.112,5.778-19.83,0.396-28.154c-0.313-0.361-0.346-0.728-0.087-1.094c5.659-8.32,5.359-20.105-0.305-28.347
	c4.941-6.909,5.599-16.348,2.519-24.151c-1.781-4.566-5.268-8.671-9.981-10.308c-3.182-1.153-6.585-0.826-9.912-0.868
	c0-11.052,0-22.104,0.006-33.156c-0.224-5.561,0.483-11.186-0.642-16.681c-1.725-9.121-8.978-16.945-17.943-19.35
	c-3.13-0.925-6.427-1.104-9.673-1.078c-38.223,0.052-76.446-0.141-114.669,0c-9.665,0.104-19.048,6.074-22.889,15.007
	c-3.388,7.331-2.098,15.565-2.354,23.365c0.001,5.119,0,10.236,0,15.354c-11.88,0.004-22.241,0.016-25.611,0.033
	c-1.56-0.033-2.989,0.706-4.161,1.677c-20.567,16.797-41.127,33.595-61.689,50.393c-0.979,5.867-1.672,11.83-2.062,17.876
	c23.155-18.91,46.311-37.821,69.456-56.743C327.598,205.1,328.833,205.341,329.896,205.31 M527.556,321.125
	c-0.547,1.491-1.584,3.153-3.31,3.376c-1.741,0.127-3.49,0.076-5.234,0.02c0.001-5.371,0-10.742,0-16.113
	c1.901-0.034,3.811-0.141,5.705,0.08c1.361,0.619,2.133,2.046,2.654,3.382C528.43,314.818,528.543,318.134,527.556,321.125
	 M519.012,279.535c1.825-0.006,3.656-0.088,5.479,0.05c1.342,0.433,2.127,1.759,2.694,2.968c1.233,3.042,1.399,6.538,0.394,9.667
	c-0.538,1.492-1.514,3.162-3.224,3.419c-1.777,0.203-3.562,0.139-5.342,0.091C519.012,290.333,519.013,284.932,519.012,279.535
	 M527.469,263.694c-0.559,1.349-1.482,2.902-3.072,3.099c-1.79,0.15-3.592,0.082-5.385,0.054
	c-0.001-5.366-0.001-10.735-0.001-16.101c1.96,0.012,3.941-0.173,5.871,0.162c1.632,0.913,2.396,2.788,2.872,4.508
	C528.434,258.119,528.444,261.061,527.469,263.694 M519.011,221.852c1.942,0.01,3.907-0.169,5.818,0.2
	c2.448,1.427,3.068,4.561,3.356,7.153c0.155,2.974-0.215,6.692-2.906,8.501c-2.006,0.626-4.169,0.301-6.271,0.314
	C519.009,232.629,519.009,227.24,519.011,221.852 M410.024,381.386l-0.009,0.072c0,0.853-0.355,1.648-1.051,2.368l-9.423,9.77
	l9.21,9.686c0.769,0.78,1.158,1.639,1.158,2.545l0.001,0.329c-0.155,1.101-0.795,1.969-1.901,2.582
	c-0.893,0.492-1.823,0.74-2.762,0.74c-0.258,0-0.461,0-0.724-0.044c-1.247-0.127-2.208-0.575-2.94-1.375l-7.941-8.38l-7.999,8.335
	c-0.751,0.811-1.811,1.289-3.167,1.423c-0.247,0.041-0.44,0.041-0.706,0.041c-1.009,0-1.871-0.253-2.625-0.765
	c-0.972-0.738-1.518-1.592-1.665-2.605l-0.016-0.057c-0.035-0.092-0.035-0.246-0.035-0.36c0-0.851,0.352-1.646,1.05-2.366
	l9.371-9.68l-9.319-9.82c-0.742-0.758-1.102-1.561-1.102-2.456c0-0.127,0-0.235,0.051-0.417c0.152-1.082,0.776-1.97,1.856-2.635
	c0.888-0.533,1.747-0.783,2.702-0.783c0.205,0,0.374,0.031,0.588,0.07l0.124,0.019c1.252,0.177,2.263,0.671,3.003,1.468l7.994,8.473
	l8.151-8.469c0.844-0.841,1.908-1.338,3.188-1.474c0.186-0.042,0.379-0.042,0.535-0.042c0.989,0,1.911,0.291,2.743,0.867
	c0.947,0.635,1.504,1.478,1.662,2.541C410.065,381.12,410.065,381.251,410.024,381.386 M491.424,385.634l-22.832,22.831
	c-0.92,0.92-2.521,0.92-3.438,0.004L452.37,395.68c-0.461-0.458-0.713-1.069-0.713-1.717c0-0.648,0.252-1.26,0.713-1.718
	l3.651-3.652c0.459-0.46,1.068-0.714,1.719-0.714c0.648,0,1.259,0.254,1.717,0.713l6.394,6.395c0.565,0.564,1.479,0.564,2.044,0
	l16.44-16.44c0.917-0.919,2.517-0.917,3.435,0l3.654,3.652C492.369,383.146,492.369,384.687,491.424,385.634 M416.612,156.392
	h41.313c2.853,0,5.164,2.313,5.164,5.165c0,2.852-2.312,5.164-5.164,5.164h-41.313c-2.852,0-5.164-2.312-5.164-5.164
	C411.448,158.705,413.761,156.392,416.612,156.392 M371.563,182.195c42.252-0.013,84.502,0.013,126.754-0.013
	c-0.039,64.184-0.026,117.524-0.007,181.716c-42.258-0.032-84.515,0-126.772-0.019c0.041-46.859,0.025-82.868,0.021-129.724
	c7.19-0.011,17.304,0.002,22.882,0.002c3.599,0.123,7.353-0.383,10.446-2.346c4.881-2.999,7.571-8.593,8.35-14.117
	c0.921-6.766-0.51-14.128-4.952-19.464c-2.743-3.341-6.941-5.39-11.263-5.478c-3.006-0.017-13.413-0.026-25.46-0.028
	C371.563,189.215,371.563,185.703,371.563,182.195"/>
<path fill-rule="evenodd" clip-rule="evenodd" fill="#4D4D4D" d="M630.75,566.666c-3.698-14.121,3.267-31.97,7.692-43.782
	c-3.763-4.96-14.345-4.11-18.341,0c-12.183-7.248-23.574,2.313-28.399,8.876c-3.953,5.374-4.659,15.438-11.833,16.565
	c-2.497-12.097-12.738-16.45-21.301-22.482c1.008-4.269,1.391-12.752-2.366-14.2c-6.519,0.985-14.699,5.157-14.791,12.426
	c-0.048,3.694,4.258,6.746,4.733,10.648c1.02,8.379-5.594,18.685-11.242,18.342c4.855-14.18,2.98-37.173-11.242-36.683
	c-2.992,0.104-5.139,2.659-7.689,3.551c-2.398,0.837-5.297,0.435-7.692,1.183c-14.248,4.443-24.952,20.758-20.708,37.275
	c-3.349,3.749-4.236,9.964-11.834,9.466c-3.652-16.194,2.87-32.15,8.283-43.191c-19.854-9.173-29.66,13.064-26.031,33.133
	c-5.211,4.58-12.475,12.726-21.891,10.059c-5.274-1.495-7.137-10.87-7.101-16.566c0.067-10.306,3.797-23.749,11.833-26.033
	c6.042,6.556-3.519,15.022-8.282,18.341c3.968,2.934,7.559,6.245,15.383,5.325c14.114-8.273,7.233-28.036-6.509-29.583
	c-19.322-2.172-33.938,18.486-30.175,37.275c-4.003,10.4-28.466,18.764-30.767,1.183c8.999-5.49,22.977-11.27,27.217-21.3
	c5.213-12.333-9.288-18.026-20.117-17.158c-16.222,1.301-29.749,18.729-26.031,36.683c-3.531,4.163-3.826,11.56-11.243,11.834
	c-1.14-16.339,8.983-26.508,10.651-42.008c-0.462-0.131-0.689-0.496-0.592-1.184c-7.197-5.951-24.6,1.819-30.175-5.325
	c14.358-21.12-3.677-42.607-27.216-42.007h-14.199c-22.023,3.845-46.438,8.642-55.025,25.441c-1.948,3.813-3.264,9.218-1.775,14.199
	c4.378,14.645,37.757,24.649,33.134-4.142c-4.887,1.089-12.708,2.297-16.567-0.592c-8.941-28.604,63.066-37.65,67.449-11.241
	c3.353,20.209-15.35,37.714-33.134,39.049c5.774-15.526,4.763-37.836,15.976-47.924c-26.533-12.555-29.504,19.478-33.133,42.009
	c-2.116,13.137-6.125,25.579-11.833,32.539c-3.017,3.681-13.991,11.831-20.117,4.733c-6.242-7.232,2.73-19.486,6.51-23.074
	c3.88-3.685,8.762-5.333,13.607-7.692c-4.251-5.598-9.131-9.544-17.75-8.281c-16.807,2.459-21.461,31.802-7.69,42.599
	c3.556,2.789,9.422,3.655,13.607,4.733h1.775c21.323-2.344,28.917-18.415,37.865-33.133c19.76-0.948,34.168-10.403,43.784-19.524
	c0.079,3.271,1.683,5.021,2.366,7.69c-1.506,4.543-1.503,9.854-2.958,14.792c-1.302,4.415-5.973,9.083-2.959,11.833
	c7.341-2.127,7.887-16.173,11.833-23.666c1.535,1.333,3.962-0.475,4.733,0.592c-3.674,10.369-7.542,33.559,4.733,36.683
	c10.782,2.744,16.205-7.362,20.708-14.2c6.498,20.247,40.529,16.379,49.699,1.184c3.873,7.818,10.612,13.452,20.117,13.608
	c11.427,0.188,20.391-7.748,26.624-11.242c2.64,16.918,25.867,9.874,29.582-1.183c3.74,7.753,11.57,12.686,20.708,12.425
	c11.715-0.335,17.667-9.388,22.483-16.567c11.915-1.494,16.736-10.083,21.3-18.933c3.658,2.454,5.313,6.916,5.915,12.425
	c-10.135,0.438-23.377,9.6-15.382,18.342c8.603,9.407,28.347,0.205,33.133-7.691c2.315-3.822,1.371-9.786,7.099-10.059
	c-1.37,24.425,27.467,25.256,28.992,4.733c0.424,24.543,27.434,16.808,31.356,0v-5.325
	C639.878,551.201,638.94,569.215,630.75,566.666 M390.538,523.476c5.125,4.113,1.054,12.14-1.182,16.566
	c-2.6,5.148-6.183,10.096-9.467,11.242C380.683,539.258,383.069,528.825,390.538,523.476 M508.278,560.75
	c-7.869-7.941,0.527-29.205,5.325-34.907c-1.696,11.944,1.79,26.847,11.24,31.358C521.596,562.736,512.43,564.941,508.278,560.75
	 M528.395,551.876c-6.799-1.6-8.264-19.195-0.592-18.934C533.523,535.747,529.924,547.357,528.395,551.876 M548.51,562.525
	c1.781-2.754,6.084-2.989,9.467-4.141C561.93,562.381,548.457,574.473,548.51,562.525 M606.493,563.709
	c-7.158-6.098-1.331-39.432,11.241-36.683C612.479,537.745,615.58,556.822,606.493,563.709"/>
<path fill-rule="evenodd" clip-rule="evenodd" fill="#4D4D4D" d="M476.92,498.035c-5.188,1.396-8.457,4.633-8.282,10.649
	c0.431,14.837,25.456,12.99,24.258-1.774C492.365,500.385,486.456,495.472,476.92,498.035"/>
</svg>
